<svg version="1" xmlns="http://www.w3.org/2000/svg" width="933.333" height="933.333" viewBox="0 0 700.000000 700.000000"><path d="M0 355.7C0 543.4.4 646.8 1 651c3.4 21.9 26.1 44.6 48 48 8.9 1.4 593.1 1.4 602 0 21.9-3.4 44.6-26.1 48-48 .6-4.2 1-107.6 1-295.3V67H0v288.7zm166.2-231c1.7 1.5 1.8 9.7 1.8 204.5V532h202.5c201.2 0 202.5 0 204.5 2 2.7 2.7 2.7 8.3 0 11-2 2-3.3 2-204.5 2H168v13c0 11.7-.2 13.2-2 15-2.7 2.7-8.3 2.7-11 0-1.8-1.8-2-3.3-2-15v-13h-13c-11.7 0-13.2-.2-15-2-1.2-1.2-2-3.3-2-5.5s.8-4.3 2-5.5c1.8-1.8 3.3-2 15-2h13V126.1l2.7-2.1c3.1-2.4 7.4-2.2 10.5.7zm365 30.3c26 8 38.5 38.1 26.5 63.5-12.5 26.3-47.4 33.6-70.5 14.7l-5.3-4.3-28.4 17.8-28.5 17.8.6 6c2.1 20.8-11.7 41.4-31.5 47-11.9 3.4-23 2.5-34.1-2.6l-6.4-3-28.6 28.6-28.5 28.5 1.9 3.3c8.1 14.1 7.8 33.9-.9 47.7-17.4 27.6-59.6 27.6-77 0-6.9-10.9-8.8-27.3-4.6-39.2 9.1-26.1 38-37.9 63.5-26l6.3 3 28.7-28.7 28.6-28.6-2-3c-3.4-5.1-6-15.1-6-23.2 0-15.4 6.3-28.1 18.2-36.9 7.8-5.7 16.4-8.5 26.6-8.5 9.2 0 14.4 1.2 22.2 5.1 5.3 2.7 16 12.2 16 14.2 0 .6.8.7 1.7.4 2.1-.8 51.4-31.5 53-33 .8-.8.7-2.9-.4-8.5-3.6-17.7 4.2-37.1 18.9-46.9 10.8-7.1 27-9.2 40-5.2zM530 284c2 2 2 3.3 2 107.4 0 101.5-.1 105.5-1.9 107.7-2.6 3.2-8.6 3.2-11.2 0-1.8-2.2-1.9-6.2-1.9-107.7 0-104.1 0-105.4 2-107.4 1.2-1.2 3.3-2 5.5-2s4.3.8 5.5 2zm-137.1 67.9c1.1 1.1 2.3 3.5 2.6 5.3.3 1.8.5 33.9.3 71.4-.3 57.9-.5 68.4-1.8 69.9-4 4.9-11.3 3.6-13-2.3-.8-2.5-1-26.2-.8-73l.3-69.4 2.4-1.9c3-2.4 7.6-2.4 10 0zM272.3 474.2c1.4 1.6 1.7 4 1.7 12.3 0 12.3-1.3 14.9-7.5 14.9s-7.5-2.6-7.5-14.6c0-5.5.5-10.8 1.1-11.9 2.2-4.2 8.9-4.6 12.2-.7z"/><path d="M511.3 169c-23.8 4.8-32.4 33.7-15.1 50.9 14.3 14.1 39.8 9.1 47.9-9.3 3.1-7.1 3.2-17.3.1-24.2-5.6-12.5-19.8-20-32.9-17.4zM372.5 245.3c-13.3 4-21.9 15.1-21.9 28.2 0 8.1 1.6 13 6.1 18.9 10.8 14 31.8 15.6 44.2 3.4 6.1-6 8.3-11 8.9-19.4.6-9.3-1.5-15.8-7.3-22.2-7.3-8.1-20.1-11.9-30-8.9zM253.3 366c-28.5 5.8-33 44.6-6.5 56.7 19.5 9 42.2-5.7 42.2-27.2 0-18.4-17.7-33.1-35.7-29.5z"/></svg>